<!DOCTYPE svg PUBLIC "-//W3C//DTD SVG 1.1//EN" "http://www.w3.org/Graphics/SVG/1.1/DTD/svg11.dtd">
<!-- Uploaded to: SVG Find, www.svgrepo.com, Transformed by: SVG Find Mixer Tools -->
<svg fill="#fbff00" width="800px" height="800px" version="1.1" viewBox="144 144 512 512" xmlns="http://www.w3.org/2000/svg" stroke="#fbff00">
<g id="SVGRepo_bgCarrier" stroke-width="0"/>
<g id="SVGRepo_tracerCarrier" stroke-linecap="round" stroke-linejoin="round"/>
<g id="SVGRepo_iconCarrier"> <path d="m400 440.28c-31.234 0-61.184-12.406-83.27-34.488-22.082-22.086-34.488-52.039-34.488-83.27 0-31.23 12.406-61.184 34.492-83.266 22.086-22.082 52.035-34.488 83.27-34.488 31.23 0 61.18 12.41 83.266 34.492 22.082 22.086 34.488 52.039 34.484 83.27-0.035156 31.219-12.453 61.152-34.527 83.227-22.078 22.074-52.008 34.492-83.227 34.523zm132.99-117.75c0-35.273-14.012-69.102-38.953-94.043-24.941-24.941-58.77-38.953-94.039-38.953-35.273 0-69.102 14.012-94.043 38.953-24.941 24.941-38.953 58.77-38.953 94.043s14.012 69.102 38.953 94.043c24.941 24.941 58.77 38.953 94.043 38.953 35.258-0.039063 69.066-14.062 94-38.996s38.957-58.738 38.992-94zm-111.8 26.605c-0.13672-4-1.5156-7.8555-3.9531-11.031-2.4336-3.1758-5.8008-5.5117-9.625-6.6797v35.43c3.8281-1.168 7.1914-3.5078 9.6289-6.6836 2.4336-3.1758 3.8164-7.0352 3.9492-11.035zm-42.395-53.215c0.13281 4 1.5156 7.8555 3.9492 11.031s5.8008 5.5117 9.625 6.6836v-35.43c-3.8242 1.1719-7.1875 3.5078-9.6211 6.6836-2.4375 3.1758-3.8164 7.0312-3.9531 11.031zm42.395 0c-0.054687 2.0547 0.72656 4.0469 2.1602 5.5195 1.4336 1.4727 3.4023 2.3047 5.4609 2.3047 2.0547 0 4.0273-0.83203 5.4609-2.3047s2.2109-3.4648 2.1562-5.5195c-0.20312-8.0469-3.1836-15.777-8.4336-21.879-5.2539-6.0977-12.457-10.195-20.383-11.59v-9.4375c-0.11328-4.1289-3.4922-7.418-7.6211-7.418s-7.5078 3.2891-7.6211 7.418v9.4375c-7.9258 1.3945-15.129 5.4922-20.379 11.59-5.2539 6.1016-8.2305 13.832-8.4336 21.879 0.19922 8.0469 3.1797 15.781 8.4297 21.883 5.2539 6.1016 12.453 10.199 20.383 11.594v37.457c-3.8242-1.1719-7.1914-3.5078-9.625-6.6875-2.4336-3.1758-3.8125-7.0312-3.9492-11.031 0.054688-2.0586-0.72266-4.0469-2.1602-5.5234-1.4336-1.4727-3.4023-2.3047-5.4609-2.3047-2.0547 0-4.0234 0.83203-5.4609 2.3047-1.4336 1.4766-2.2109 3.4648-2.1562 5.5234 0.19922 8.0469 3.1797 15.777 8.4297 21.879 5.2539 6.1016 12.457 10.199 20.383 11.594v9.4375c-0.054688 2.0547 0.72656 4.0469 2.1602 5.5195s3.4023 2.3047 5.4609 2.3047c2.0547 0 4.0273-0.83203 5.4609-2.3047 1.4336-1.4727 2.2148-3.4648 2.1602-5.5195v-9.4375c10.777-1.6172 20.117-8.3242 25.094-18.02 4.9727-9.6992 4.9727-21.199 0-30.895-4.9766-9.6992-14.316-16.406-25.094-18.023v-37.465c3.8242 1.168 7.1914 3.5039 9.625 6.6797 2.4375 3.1758 3.8203 7.0352 3.9531 11.035zm-21.195 112.82c22.867 0.003906 44.797-9.082 60.969-25.25 16.172-16.168 25.258-38.102 25.258-60.969 0-22.867-9.0859-44.801-25.254-60.969-16.172-16.172-38.102-25.254-60.969-25.254-22.871 0-44.801 9.0859-60.969 25.254-16.172 16.172-25.254 38.105-25.254 60.973 0.027344 22.859 9.1211 44.77 25.281 60.934 16.164 16.164 38.078 25.254 60.938 25.281zm0-187.67c-26.91 0-52.715 10.691-71.742 29.719-19.027 19.023-29.715 44.832-29.715 71.738s10.688 52.715 29.715 71.738c19.027 19.027 44.832 29.719 71.742 29.719 26.906 0 52.711-10.691 71.738-29.719 19.027-19.023 29.715-44.832 29.715-71.738-0.03125-26.898-10.73-52.684-29.75-71.707-19.02-19.02-44.809-29.719-71.703-29.75zm-228.32 211.17c-0.71484 3.2383 0.17578 6.6172 2.3867 9.0859l61.613 72.746c1.1016 1.3047 1.7344 2.9375 1.7969 4.6406l0.69922 19.008 63.383 0.4375 0.24219-69.824h0.003906c0.085938-2.7891-0.95312-5.4961-2.8906-7.5078l-68.094-73.676c-4.5703-4.9453-12.289-5.25-17.234-0.67969-4.9492 4.5742-5.2539 12.289-0.67969 17.238l49.73 53.82c1.4102 1.4766 2.168 3.457 2.1055 5.5s-0.94141 3.9727-2.4414 5.3633c-1.5039 1.3867-3.4961 2.1133-5.5391 2.0156-2.0391-0.097656-3.957-1.0117-5.3164-2.5312l-49.715-53.848c-6.6484-7.1914-8.957-17.379-6.0625-26.73 2.8945-9.3555 10.551-16.457 20.098-18.637l7.6914-81.449c0.47656-4.4414-1.707-8.7461-5.5664-10.992-3.9258-2.4648-8.918-2.4648-12.84 0-2.8164 1.7773-4.7148 4.6953-5.1914 7.9922l-28.172 148.04zm144.54 162.93-95.188-0.65625 1.082-41.676 95.188 0.66016zm-153.78-144 59.906 70.715 0.58594 15.711-8.168-0.058594h-0.035157c-4.1328 0-7.5117 3.293-7.6211 7.4219l-1.4961 56.883c-0.0625 2.0508 0.70703 4.0391 2.1367 5.5117 1.4297 1.4727 3.3945 2.3047 5.4492 2.3047l110.44 0.75781h-0.019531c4.1289-0.003907 7.5078-3.2891 7.625-7.418l1.4883-56.883v0.003906c0.058594-2.0508-0.71484-4.0391-2.1445-5.5117-1.4258-1.4727-3.3906-2.3047-5.4414-2.3125l-8.3867-0.054687 0.24219-69.883h0.003906c0.11328-6.6367-2.375-13.055-6.9336-17.879l-68.09-73.676v0.003906c-3.0352-3.2891-6.8281-5.7852-11.051-7.2617l7.6367-80.879c0.48828-5.0234-0.45312-10.078-2.7227-14.586-2.2656-4.5039-5.7656-8.2773-10.09-10.875-4.3594-2.7148-9.3984-4.1367-14.531-4.1016-5.1328 0.03125-10.152 1.5156-14.477 4.2852-6.3203 4.0508-10.645 10.57-11.918 17.969l-28.172 148.04c-1.543 7.7539 0.57422 15.785 5.7383 21.777zm336 86.969 63.383-0.4375 0.70312-19.008v-0.003906c0.0625-1.7031 0.69141-3.3359 1.793-4.6367l61.613-72.727c2.2109-2.4688 3.1016-5.8477 2.3867-9.0859l-28.172-148.04h0.003906c-0.48047-3.2969-2.3789-6.2148-5.1953-7.9883-3.9258-2.4688-8.9141-2.4688-12.84 0-3.8594 2.2461-6.0391 6.5469-5.5703 10.988l7.6914 81.449h0.003907c9.5352 2.1992 17.18 9.3047 20.07 18.652 2.8906 9.3477 0.58984 19.527-6.0391 26.727l-49.734 53.828-0.003906-0.003906c-2.875 3.0078-7.6289 3.1562-10.684 0.33203-3.0547-2.8242-3.2812-7.5781-0.50781-10.68l49.734-53.82c4.457-4.9648 4.1016-12.586-0.79688-17.113-4.8984-4.5273-12.527-4.2773-17.121 0.55859l-68.094 73.676h-0.003906c-1.9336 2.0117-2.9727 4.7188-2.8867 7.5078zm80.535 56.34-95.191 0.65625-1.082-41.672 95.188-0.66016 1.082 41.676zm58.582-143.31c5.1602-5.9922 7.2773-14.023 5.7383-21.777l-28.172-148.04c-1.2734-7.3984-5.5977-13.918-11.918-17.969-4.3242-2.7695-9.3438-4.2578-14.477-4.2891-5.1367-0.03125-10.176 1.3906-14.531 4.1055-4.3281 2.5977-7.8281 6.3672-10.098 10.875-2.2656 4.5078-3.2109 9.5625-2.7227 14.586l7.6406 80.863c-4.2188 1.4766-8.0078 3.9727-11.035 7.2578l-68.094 73.676h-0.003906c-4.5586 4.8359-7.0508 11.262-6.9375 17.906l0.26172 69.883-8.3906 0.054688h-0.003906c-2.0547 0-4.0195 0.82812-5.4492 2.3047-1.4297 1.4727-2.1992 3.4648-2.1328 5.5156l1.4844 56.883c0.10156 4.1562 3.5078 7.4609 7.6641 7.4453h0.058594l110.43-0.75781v-0.003907c2.0469-0.003906 4.0039-0.83984 5.4297-2.3125 1.4219-1.4727 2.1875-3.457 2.125-5.5039l-1.4883-56.883v0.003906c-0.10547-4.1328-3.4883-7.4297-7.6211-7.4219h-0.050781l-8.1875 0.058594 0.58594-15.711z" fill-rule="evenodd"/> </g>
</svg>